/* XPM */
static char const *icon_png[] = {
/* columns rows colors chars-per-pixel */
"64 64 90 1 ",
"  c black",
". c #161616",
"X c #222222",
"o c #2A2A2A",
"O c #323232",
"+ c gray23",
"@ c gray25",
"# c gray27",
"$ c #494949",
"% c gray31",
"& c #535353",
"* c #555555",
"= c #565656",
"- c gray36",
"; c #606060",
": c #656565",
"> c #686868",
", c #6D6D6D",
"< c gray44",
"1 c #717171",
"2 c #727272",
"3 c #767676",
"4 c #797979",
"5 c #7C7C7C",
"6 c #7E7E7E",
"7 c #818181",
"8 c #848484",
"9 c gray53",
"0 c gray54",
"q c #8B8B8B",
"w c #8E8E8E",
"e c gray56",
"r c gray57",
"t c #939393",
"y c #959595",
"u c gray59",
"i c #979797",
"p c #9B9B9B",
"a c #9D9D9D",
"s c gray65",
"d c #A7A7A7",
"f c #AAAAAA",
"g c gray67",
"h c gray69",
"j c #B1B1B1",
"k c #B2B2B2",
"l c #BBBBBB",
"z c #BCBCBC",
"x c gray",
"c c #C1C1C1",
"v c gray77",
"b c #C6C6C6",
"n c gray79",
"m c #CECECE",
"M c #D0D0D0",
"N c gray82",
"B c #D2D2D2",
"V c gray83",
"C c #D5D5D5",
"Z c gray84",
"A c #D7D7D7",
"S c #DADADA",
"D c gray86",
"F c gray88",
"G c gray89",
"H c #E4E4E4",
"J c gray90",
"K c #E7E7E7",
"L c gray91",
"P c #E9E9E9",
"I c #EAEAEA",
"U c gray92",
"Y c #ECECEC",
"T c gray93",
"R c #EEEEEE",
"E c gray94",
"W c #F1F1F1",
"Q c #F3F3F3",
"! c #F4F4F4",
"~ c gray96",
"^ c #F6F6F6",
"/ c gray97",
"( c #F8F8F8",
") c #F9F9F9",
"_ c gray98",
"` c #FBFBFB",
"' c gray99",
"] c #FDFDFD",
"[ c #FEFEFE",
"{ c white",
/* pixels */
"{{{{{{{{{{{{{{{{{{{{{{{{{{{{{{{{{{{{{{{{{{{{{{{{{{{{{{{{{{{{{{{{",
"{{{{{{{{{{{{{{{{{{{{{{{{{{{{{{{{{{{{{{{{{{{{{{{{{{{{{{{{{{{{{{{{",
"{{{{{{{{{{{{{{{{{{{{{{{{{{{{{{{{{{{{{{{{{{{{{{{{{{{{{{{{{{{{{{{{",
"{{{{{{{{{{{{{{{{{{!KKKK`{{{{{{{{{{{{{{{{`KKKK!{{{{{{{{{{{{{{{{{{",
"{{{{{{{{{{{{{{{{{{c    P{{{{{{{{{{{{{{{{K    z{{{{{{{{{{{{{{{{{{",
"{{{{{{{{{{{{{{{{{{c    P{{{{{{{{{{{{{{{{K    z{{{{{{{{{{{{{{{{{{",
"{{{{{{{{{{{{{{{{{{c    P{{{{{{{{{{{{{{{{K    z{{{{{{{{{{{{{{{{{{",
"{{{{{{{{{{{{{{{{{{c    P{{{{{{{{{{{{{{{{K    z{{{{{{{{{{{{{{{{{{",
"{{{{{{{{{{{{{{{{{{c    P{{{{{{{{{{{{{{{{K    z{{{{{{{{{{{{{{{{{{",
"{{{{{{{{{{{{{{{{{{c    P{{{{{{{{{{{{{{{{K    z{{{{{{{{{{{{{{{{{{",
"{{{{{{{{{{{{{{{{{{c    P{{{{{{{{{{{{{{{{K    z{{{{{{{{{{{{{{{{{{",
"{{{{{{{{{{{{{{{{{{c    P{{{{{{{{{{{{{{{{K    z{{{{{{{{{{{{{{{{{{",
"{{{{{{{{{{{{{{{{{{c    P{{{{{{{{{{{{{{{{K    z{{{{{{{{{{{{{{{{{{",
"{{{{{{{{{{{{{{{{{{c    P{{{{{{{{{{{{{{{{K    z{{{{{{{{{{{{{{{{{{",
"{{{{{{{{{{{{{{{{{{c    P{{{{{{{{{{{{{{{{K    z{{{{{{{{{{{{{{{{{{",
"{{{{{{{{{{{{{{{{{{c    P{{{{{{{{{{{{{{{{K    z{{{{{{{{{{{{{{{{{{",
"{{{{{{Qvvvvvvvvvvvt    kvvvvvvvvvvvvvvvvk    evvvvvvvvvvvB{{{{{{",
"{{{{{{G                                                  7{{{{{{",
"{{{{{{G                                                  7{{{{{{",
"{{{{{{G                                                  7{{{{{{",
"{{{{{{G                                                  7{{{{{{",
"{{{{{{{{{{{{{{{{{{c    P{{{{{{{{{{{{{{{{K    z{{{{{{{{{{{{{{{{{{",
"{{{{{{{{{{{{{{{{{{c    P{{{{{{{{{{{{{{{{K    z{{{{{{{{{{{{{{{{{{",
"{{{{{{{{{{{{{{{{{{c    P{{{{{{{{{{{{{{{{K    z{{{{{{{{{{{{{{{{{{",
"{{{{{{{{{{{{{{{{{{c    P{{{{{{{{{{{{{{{{K    z{{{{{{{{{{{{{{{{{{",
"{{{{{{{{{{{{{{{{{{c    P{{{{{{{{{{{{{{{{K    z{{{{{{{{{{{{{{{{{{",
"{{{{{{{{{{{{{{{{{{c    P{{{{{{{{{{{{{{{{K    z{{{{{{{{{{{{{{{{{{",
"{{{{{{{{{{{{{{{{{{c    P{{{{{{{{{{{{{{{{K    z{{{{{{{{{{{{{{{{{{",
"{{{{{{{{{{{{{{{{{{c    P{{{{{{{{{{{{{{{{K    z{{{{{{{{{{{{{{{{{{",
"{{{{{{{{{{{{{{{{{{c    P{{{{{{{{{{{{{{{{K    z{{{{{{{{{{{{{{{{{{",
"{{{{{{{{{{{{{{{{{{c    P{{{{{{{{{{{{{{{{K    z{{{{{{{{{{{{{{{{{{",
"{{{{{{{{{{{{{{{{{{c    P{{{{{{{{{{{{{{{{K    z{{{{{{{{{{{{{{{{{{",
"{{{{{{{{{{{{{{{{{{c    P{{{{{{{{{{{{{{{{K    z{{{{{{{{{{{{{{{{{{",
"{{{{{{{{{{{{{{{{{{c    P{{{{{{{{{{{{{{{{K    z{{{{{{{{{{{{{{{{{{",
"{{{{{{{{{{{{{{{{{{c    P{{{{{{{{{{{{{{{{K    z{{{{{{{{{{{{{{{{{{",
"{{{{{{{{{{{{{{{{{{c    P{{{{{{{{{{{{{{{{K    z{{{{{{{{{{{{{{{{{{",
"{{{{e                                                       {{{{",
"{{{{t                                                       {{{{",
"{{{{t                                                       {{{{",
"{{{{t                                                       {{{{",
"{{{{Cccccccccccccccccccczccccccccccccccccccccccccccccccccccc{{{{",
"{{{{{{{{{{{{{{{{{{{{{{{{{{{{{{{{{{{{{{{{{{{{{{{{{{{{{{{{{{{{{{{{",
"{{{{{{{{{{{{{{{{{{{{{{{{{{{{{{{{{{{{{{{{{{{{{{{{{{{{{{{{{{{{{{{{",
"{{{{{{{{{{{{{{{{{{{{{{{{{{{{{{{{{{{{{{{{{{{{{{{{{{{{{{{{{{{{{{{{",
"{{{{{{{{{{{{{{{{{{{{{az!{{{{{{{{{{{{{{{{n0R{{{{{{{{{{{{{{{{{{{{{",
"{{{{{{{{{{{{{{{{{{{{f  XpD{{{{{{{{{{{{K5  @B{{{{{{{{{{{{{{{{{{{{",
"{{{{{{{{{{{{{{{{{{{z     6`{{{{{{{{{{G.     d`{{{{{{{{{{{{{{{{{{",
"{{{{{{{{{{{{{{{{{{v     ,!{{{{{{{{{{{{C+     <R{{{{{{{{{{{{{{{{{",
"{{{{{{{{{{{{{{{{{l     -Q{{{{{{{{{{{{{{R<     +C{{{{{{{{{{{{{{{{",
"{{{{{{{{{{{{{{{{d     $P{{{{{{{{{{{{{{{{`a      k{{{{{{{{{{{{{{{",
"{{{{{{{{{{{{{{`t     &K{{{{{{{{{{{{{{{{{{{c.     8Q{{{{{{{{{{{{{",
"{{{{{{{{{{{{{R5     :R{{{{{{{{{{{{{{{{{{{{{S@     &G{{{{{{{{{{{{",
"{{{{{{{{{{{{C#     3Q{{{{{{{{{{{{{{{{{{{{{{{R:     om{{{{{{{{{{{",
"{{{{{{{{{{`f      8`{{{{{{{{{{{{{{{{{{{{{{{{{!e      k{{{{{{{{{{",
"{{{{{{{{{P<      d{{{{{{{{{{{{{{{{{{{{{{{{{{{{{d      e!{{{{{{{{",
"{{{{{{{`kX     Om{{{{{{{{{{{{{{{{{{{{{{{{{{{{{{{z      <Q{{{{{{{",
"{{{{{{C*      :P{{{{{{{{{{{{{{{{{{{{{{{{{{{{{{{{{mo     &K{{{{{{",
"{{{{{d       y!{{{{{{{{{{{{{{{{{{{{{{{{{{{{{{{{{{{G#     +G{{{{{",
"{{{{{!7    $B{{{{{{{{{{{{{{{{{{{{{{{{{{{{{{{{{{{{{{P*    a!{{{{{",
"{{{{{{`y  aQ{{{{{{{{{{{{{{{{{{{{{{{{{{{{{{{{{{{{{{{{R; &C{{{{{{{",
"{{{{{{{{fC{{{{{{{{{{{{{{{{{{{{{{{{{{{{{{{{{{{{{{{{{{{Rf!{{{{{{{{",
"{{{{{{{{{{{{{{{{{{{{{{{{{{{{{{{{{{{{{{{{{{{{{{{{{{{{{{{{{{{{{{{{",
"{{{{{{{{{{{{{{{{{{{{{{{{{{{{{{{{{{{{{{{{{{{{{{{{{{{{{{{{{{{{{{{{",
"{{{{{{{{{{{{{{{{{{{{{{{{{{{{{{{{{{{{{{{{{{{{{{{{{{{{{{{{{{{{{{{{"
};
